<svg width="24" height="24" viewBox="0 0 24 24" fill="none" xmlns="http://www.w3.org/2000/svg">
<path d="M3.85471 18.916L2.35902 20.4117C1.57268 21.198 0.786339 21.9844 0 22.7707V18.9215L0.00549887 18.916H3.85471V18.916Z" fill="#E41D32"/>
<path d="M17.1965 18.916V23.92H1.15625L3.44378 21.6325L4.46657 20.6152L6.16022 18.916H17.1965Z" fill="#E41D32"/>
<path d="M17.196 7.88574V17.2833H7.79297C10.8833 14.1984 14.0617 11.0201 17.196 7.88574Z" fill="#E41D32"/>
<path d="M23.9217 1.1543V23.9196H18.8242V6.25175C19.7425 5.33344 20.6608 4.41513 21.5792 3.49132L23.9217 1.1543Z" fill="#E41D32"/>
<path d="M22.7714 0C16.6126 6.16424 10.8003 11.9765 5.48839 17.2885H1.61719L18.6967 0H22.7714Z" fill="#E41D32"/>
<path d="M16.4031 0L0 16.6011V0H16.4031Z" fill="#E41D32"/>
</svg>
