<svg width="160" height="21" viewBox="0 0 160 21" fill="none" xmlns="http://www.w3.org/2000/svg">
<path fill-rule="evenodd" clip-rule="evenodd" d="M62.8706 16.13L65.3085 19.9059H69.3226L65.9133 14.7003C65.1068 13.4906 64.392 12.7757 63.7504 12.5741C64.3736 12.3175 65.0518 11.621 65.7667 10.5029L68.9744 5.68217H64.9602L62.7423 9.07314C62.2841 9.788 61.8992 10.2646 61.5509 10.5029C61.2026 10.7411 60.7077 10.8694 60.0662 10.8694H59.1864V0H55.5755V19.9059H59.1864V14.3337H60.1762C60.8177 14.3337 61.3126 14.462 61.6609 14.7003C62.0091 14.9569 62.4124 15.4335 62.8706 16.13ZM4.34411 19.9244L5.77382 16.2768H12.794L14.2238 19.9244H18.5679L10.5029 0.0184527H8.19332L0 19.9244H4.34411ZM7.1304 12.5375L9.29329 7.1119L11.4195 12.5375H7.1304ZM26.688 5.49889H26.908C28.081 5.49889 29.1991 5.73718 30.2806 6.21375C31.3437 6.69031 32.2052 7.33185 32.8284 8.13835L30.7938 10.0446C30.3539 9.54973 29.7674 9.14648 29.0159 8.83488C28.2643 8.52327 27.5861 8.35831 26.9629 8.35831H26.743C26.0831 8.37664 25.5516 8.50494 25.1483 8.76156C24.7451 8.99984 24.5434 9.3481 24.5434 9.78801C24.5434 10.1913 24.7267 10.4845 25.075 10.6678C25.4233 10.8511 26.0281 10.9978 26.908 11.0711L27.8794 11.1811C31.3804 11.4193 33.14 12.904 33.14 15.6168C33.14 16.8999 32.6268 17.963 31.582 18.8062C30.5372 19.6493 29.1625 20.0709 27.4395 20.0709H27.2929C25.8998 20.0709 24.5801 19.8143 23.3337 19.3194C22.1056 18.8245 21.1891 18.1646 20.6026 17.3398L22.6555 15.4152C23.0771 15.9101 23.7186 16.3133 24.6168 16.6433C25.5149 16.9732 26.3947 17.1382 27.2562 17.1382H27.4029C28.8326 17.1382 29.5291 16.6799 29.5291 15.7451C29.5291 15.2136 29.3458 14.847 28.9609 14.6454C28.5759 14.4437 27.9527 14.2971 27.0912 14.2238L26.3031 14.1321C22.7471 13.8205 20.9508 12.4458 20.9508 10.008C20.9508 8.59659 21.5007 7.51515 22.6005 6.70864C23.6819 5.92047 25.0383 5.51722 26.688 5.49889ZM48.1336 19.9059H50.5531V5.68217H48.1336L47.932 7.69842C46.7772 6.21373 45.2192 5.48054 43.2213 5.48054C41.2234 5.48054 39.5737 6.1954 38.254 7.60678C36.9343 9.01815 36.2744 10.7411 36.2744 12.794C36.2744 14.8286 36.9343 16.5516 38.254 17.963C39.5737 19.3744 41.2234 20.0709 43.2213 20.0709C45.2009 20.0709 46.7772 19.356 47.932 17.8897L48.1336 19.9059ZM43.5513 16.5883C44.5411 16.5883 45.4026 16.24 46.1174 15.5435C46.8323 14.847 47.2172 13.9305 47.2172 12.8124C47.2172 11.6943 46.8506 10.7778 46.1174 10.0629C45.3842 9.34809 44.5227 8.99983 43.5513 8.99983C42.5615 8.99983 41.7 9.34809 40.9851 10.0629C40.2519 10.7778 39.8853 11.6943 39.8853 12.8124C39.8853 13.9305 40.2519 14.847 40.9668 15.5435C41.6816 16.24 42.5431 16.5883 43.5513 16.5883ZM85.6543 19.9059H83.2348L83.0331 17.8897C81.8784 19.356 80.302 20.0709 78.3224 20.0709C76.3245 20.0709 74.6748 19.3744 73.3551 17.963C72.0354 16.5516 71.3755 14.8286 71.3755 12.794C71.3755 10.7411 72.0354 9.01815 73.3551 7.60678C74.6748 6.1954 76.3245 5.48054 78.3224 5.48054C80.3204 5.48054 81.8784 6.21373 83.0331 7.69842L83.2348 5.68217H85.6543V19.9059ZM81.2368 15.5435C80.522 16.24 79.6605 16.5883 78.6707 16.5883C77.6626 16.5883 76.8011 16.24 76.0862 15.5435C75.3714 14.847 75.0048 13.9305 75.0048 12.8124C75.0048 11.6943 75.3714 10.7778 76.1046 10.0629C76.8194 9.34809 77.6809 8.99983 78.6707 8.99983C79.6422 8.99983 80.5036 9.34809 81.2368 10.0629C81.97 10.7778 82.3366 11.6943 82.3366 12.8124C82.3366 13.9305 81.97 14.847 81.2368 15.5435ZM94.1407 0V7.07522C95.0755 6.0121 96.3219 5.48054 97.8983 5.48054C99.8962 5.48054 101.546 6.1954 102.847 7.60678C104.149 9.01815 104.809 10.7411 104.809 12.794C104.809 14.847 104.149 16.5699 102.847 17.963C101.546 19.3744 99.8962 20.0709 97.8983 20.0709C95.9004 20.0709 94.324 19.3377 93.1509 17.8897L92.9493 19.9059H90.5298V0H94.1407ZM97.5319 8.99983C98.5033 8.99983 99.3648 9.34809 100.098 10.0629C100.813 10.7778 101.179 11.6759 101.198 12.8124C101.198 13.9305 100.831 14.847 100.116 15.5435C99.4015 16.24 98.54 16.5883 97.5319 16.5883C96.5604 16.5883 95.6989 16.24 94.9657 15.5435C94.2325 14.847 93.866 13.9305 93.866 12.8124C93.866 11.6943 94.2325 10.7778 94.9657 10.0629C95.6806 9.34809 96.5421 8.99983 97.5319 8.99983ZM122.222 19.9059H119.802L119.601 17.8897C118.446 19.356 116.87 20.0709 114.89 20.0709C112.91 20.0709 111.242 19.3744 109.923 17.963C108.603 16.5516 107.943 14.8286 107.943 12.794C107.943 10.7411 108.603 9.01815 109.923 7.60678C111.242 6.1954 112.892 5.48054 114.89 5.48054C116.888 5.48054 118.446 6.21373 119.601 7.69842L119.802 5.68217H122.222V19.9059ZM117.786 15.5435C117.071 16.24 116.21 16.5883 115.22 16.5883C114.23 16.5883 113.369 16.24 112.635 15.5435C111.921 14.847 111.554 13.9305 111.554 12.8124C111.554 11.6943 111.921 10.7778 112.654 10.0629C113.369 9.34809 114.23 8.99983 115.22 8.99983C116.191 8.99983 117.053 9.34809 117.786 10.0629C118.519 10.7778 118.886 11.6943 118.886 12.8124C118.886 13.9305 118.519 14.847 117.786 15.5435ZM134.649 5.49889C136.665 5.49889 138.187 6.1221 139.25 7.36851C140.313 8.61492 140.845 10.3012 140.845 12.4091V19.9059H137.234V12.6291C137.234 10.2096 136.189 8.98151 134.081 8.98151C133 8.98151 132.175 9.31144 131.57 9.97131C130.983 10.6312 130.69 11.621 130.69 12.9407V19.9059H127.079V5.68219H129.499L129.755 7.90007C130.745 6.30539 132.376 5.49889 134.649 5.49889ZM153.015 16.13L155.453 19.9059H159.468L156.058 14.7003C155.252 13.4906 154.537 12.7757 153.895 12.5741C154.519 12.3175 155.197 11.621 155.912 10.5029L159.101 5.68217H155.105L152.887 9.07314C152.429 9.788 152.044 10.2646 151.696 10.5029C151.348 10.7411 150.853 10.8694 150.211 10.8694H149.331V0H145.72V19.9059H149.331V14.3337H150.321C150.963 14.3337 151.457 14.462 151.806 14.7003C152.154 14.9569 152.557 15.4335 153.015 16.13Z" fill="#454142"/>
</svg>
